<svg xmlns="http://www.w3.org/2000/svg" width="24" height="24" fill="none" viewBox="0 0 24 24"><path fill="#57708E" d="M10.0833 15.9579H3.50777C2.67555 15.9579 2 16.6217 2 17.4393C2 18.2558 2.67555 18.9206 3.50777 18.9206H10.0833C10.9155 18.9206 11.5911 18.2558 11.5911 17.4393C11.5911 16.6217 10.9155 15.9579 10.0833 15.9579" opacity=".4"/><path fill="#57708E" d="M22.0001 6.37855C22.0001 5.56202 21.3246 4.89832 20.4934 4.89832H13.9179C13.0857 4.89832 12.4102 5.56202 12.4102 6.37855C12.4102 7.19617 13.0857 7.85988 13.9179 7.85988H20.4934C21.3246 7.85988 22.0001 7.19617 22.0001 6.37855" opacity=".4"/><path fill="#57708E" d="M8.87774 6.37856C8.87774 8.24523 7.33886 9.75821 5.43887 9.75821C3.53999 9.75821 2 8.24523 2 6.37856C2 4.51298 3.53999 3 5.43887 3C7.33886 3 8.87774 4.51298 8.87774 6.37856"/><path fill="#57708E" d="M22.0001 17.3992C22.0001 19.2648 20.4612 20.7778 18.5612 20.7778C16.6623 20.7778 15.1223 19.2648 15.1223 17.3992C15.1223 15.5326 16.6623 14.0196 18.5612 14.0196C20.4612 14.0196 22.0001 15.5326 22.0001 17.3992"/></svg>