<svg width="24" height="24" viewBox="0 0 24 24" fill="none" xmlns="http://www.w3.org/2000/svg">
<path d="M12.012 14.8301C10.4075 14.8301 9.10962 13.5801 9.10962 12.0101C9.10962 10.4401 10.4075 9.18011 12.012 9.18011C13.6165 9.18011 14.8837 10.4401 14.8837 12.0101C14.8837 13.5801 13.6165 14.8301 12.012 14.8301" fill="#57708E"/>
<path opacity="0.4" d="M21.2301 14.3701C21.036 14.0701 20.76 13.7701 20.4023 13.5801C20.1162 13.4401 19.9322 13.2101 19.7687 12.9401C19.2475 12.0801 19.5541 10.9501 20.4228 10.4401C21.4447 9.87012 21.7718 8.60012 21.179 7.61012L20.4943 6.43012C19.9118 5.44012 18.6344 5.09012 17.6226 5.67012C16.7233 6.15012 15.5685 5.83012 15.0473 4.98012C14.8838 4.70012 14.7918 4.40012 14.8122 4.10012C14.8429 3.71012 14.7203 3.34012 14.5363 3.04012C14.1582 2.42012 13.4735 2.00012 12.7172 2.00012H11.2763C10.5302 2.02012 9.84553 2.42012 9.4674 3.04012C9.27323 3.34012 9.16081 3.71012 9.18125 4.10012C9.20169 4.40012 9.10972 4.70012 8.9462 4.98012C8.425 5.83012 7.27019 6.15012 6.38109 5.67012C5.35913 5.09012 4.09191 5.44012 3.49917 6.43012L2.81446 7.61012C2.23194 8.60012 2.55897 9.87012 3.57071 10.4401C4.43937 10.9501 4.74596 12.0801 4.23498 12.9401C4.06125 13.2101 3.87729 13.4401 3.59115 13.5801C3.24368 13.7701 2.93709 14.0701 2.77358 14.3701C2.39546 14.9901 2.4159 15.7701 2.79402 16.4201L3.49917 17.6201C3.87729 18.2601 4.58245 18.6601 5.31825 18.6601C5.66572 18.6601 6.0745 18.5601 6.40153 18.3601C6.65702 18.1901 6.96361 18.1301 7.30085 18.1301C8.31259 18.1301 9.16081 18.9601 9.18125 19.9501C9.18125 21.1001 10.1215 22.0001 11.3069 22.0001H12.6968C13.872 22.0001 14.8122 21.1001 14.8122 19.9501C14.8429 18.9601 15.6911 18.1301 16.7029 18.1301C17.0299 18.1301 17.3365 18.1901 17.6022 18.3601C17.9292 18.5601 18.3278 18.6601 18.6855 18.6601C19.411 18.6601 20.1162 18.2601 20.4943 17.6201L21.2097 16.4201C21.5776 15.7501 21.6083 14.9901 21.2301 14.3701" fill="#57708E"/>
</svg>
