<svg width="24" height="24" viewBox="0 0 24 24" fill="none" xmlns="http://www.w3.org/2000/svg">
<path d="M5.05962 15.1599C5.05962 16.5537 3.93313 17.6802 2.53933 17.6802C1.14553 17.6802 0.019043 16.5537 0.019043 15.1599C0.019043 13.7661 1.14553 12.6396 2.53933 12.6396H5.05962V15.1599ZM6.31976 15.1599C6.31976 13.7661 7.44625 12.6396 8.84005 12.6396C10.2338 12.6396 11.3603 13.7661 11.3603 15.1599V21.4607C11.3603 22.8544 10.2338 23.9809 8.84005 23.9809C7.44625 23.9809 6.31976 22.8544 6.31976 21.4607V15.1599Z" fill="#E01E5A"/>
<path d="M8.8401 5.04057C7.4463 5.04057 6.31981 3.91408 6.31981 2.52029C6.31981 1.12649 7.4463 0 8.8401 0C10.2339 0 11.3604 1.12649 11.3604 2.52029V5.04057H8.8401ZM8.8401 6.31981C10.2339 6.31981 11.3604 7.4463 11.3604 8.8401C11.3604 10.2339 10.2339 11.3604 8.8401 11.3604H2.52029C1.12649 11.3604 0 10.2339 0 8.8401C0 7.4463 1.12649 6.31981 2.52029 6.31981H8.8401Z" fill="#36C5F0"/>
<path d="M18.9404 8.8401C18.9404 7.4463 20.0669 6.31981 21.4607 6.31981C22.8544 6.31981 23.9809 7.4463 23.9809 8.8401C23.9809 10.2339 22.8544 11.3604 21.4607 11.3604H18.9404V8.8401ZM17.6802 8.8401C17.6802 10.2339 16.5537 11.3604 15.1599 11.3604C13.7661 11.3604 12.6396 10.2339 12.6396 8.8401V2.52029C12.6396 1.12649 13.7661 0 15.1599 0C16.5537 0 17.6802 1.12649 17.6802 2.52029V8.8401Z" fill="#2EB67D"/>
<path d="M15.1599 18.9404C16.5537 18.9404 17.6802 20.0669 17.6802 21.4607C17.6802 22.8544 16.5537 23.9809 15.1599 23.9809C13.7661 23.9809 12.6396 22.8544 12.6396 21.4607V18.9404H15.1599ZM15.1599 17.6802C13.7661 17.6802 12.6396 16.5537 12.6396 15.1599C12.6396 13.7661 13.7661 12.6396 15.1599 12.6396H21.4797C22.8735 12.6396 24 13.7661 24 15.1599C24 16.5537 22.8735 17.6802 21.4797 17.6802H15.1599Z" fill="#ECB22E"/>
</svg>
