<svg xmlns="http://www.w3.org/2000/svg" width="24" height="24" fill="none" viewBox="0 0 24 24"><path fill="#57708E" d="M6.70555 12.8905C6.18944 12.8905 5.77163 13.3145 5.77163 13.8383L5.51416 18.417C5.51416 19.0846 6.04783 19.625 6.70555 19.625C7.36328 19.625 7.89577 19.0846 7.89577 18.417L7.63947 13.8383C7.63947 13.3145 7.22167 12.8905 6.70555 12.8905" opacity=".4"/><path fill="#57708E" d="M7.98037 3.67345C7.98037 3.67345 7.71236 3.39789 7.54618 3.27793C7.30509 3.09264 7.00783 3 6.71173 3C6.37936 3 6.0704 3.10452 5.81877 3.30169C5.77313 3.34801 5.57886 3.5226 5.41852 3.68532C4.41204 4.6367 2.76539 7.12026 2.26215 8.42083C2.18257 8.618 2.01053 9.11685 2 9.38409C2 9.63827 2.05618 9.88294 2.17087 10.1145C2.3312 10.4044 2.58282 10.6372 2.88009 10.7642C3.08606 10.8462 3.70282 10.9733 3.71453 10.9733C4.38981 11.1016 5.48757 11.1704 6.70003 11.1704C7.85514 11.1704 8.90727 11.1016 9.59308 10.997C9.60478 10.9852 10.3702 10.8581 10.6335 10.7179C11.1133 10.4626 11.4118 9.96371 11.4118 9.43041V9.38409C11.4001 9.03608 11.1016 8.30444 11.0911 8.30444C10.5879 7.07394 9.02079 4.64858 7.98037 3.67345"/><path fill="#57708E" d="M17.2947 11.1096C17.8108 11.1096 18.2286 10.6856 18.2286 10.1618L18.4849 5.58296C18.4849 4.91543 17.9524 4.375 17.2947 4.375C16.6369 4.375 16.1033 4.91543 16.1033 5.58296L16.3607 10.1618C16.3607 10.6856 16.7785 11.1096 17.2947 11.1096" opacity=".4"/><path fill="#57708E" d="M21.829 13.8853C21.6687 13.5955 21.4171 13.3639 21.1198 13.2356C20.9138 13.1537 20.2959 13.0266 20.2854 13.0266C19.6101 12.8983 18.5123 12.8294 17.2999 12.8294C16.1448 12.8294 15.0926 12.8983 14.4068 13.0028C14.3951 13.0147 13.6297 13.143 13.3664 13.2819C12.8854 13.5373 12.5881 14.0362 12.5881 14.5707V14.617C12.5998 14.965 12.8971 15.6955 12.9088 15.6955C13.412 16.926 14.9779 19.3526 16.0195 20.3266C16.0195 20.3266 16.2875 20.6021 16.4537 20.7209C16.6936 20.9074 16.9909 21 17.2893 21C17.6205 21 17.9283 20.8955 18.1811 20.6983C18.2268 20.652 18.421 20.4774 18.5814 20.3159C19.5867 19.3633 21.2345 16.8797 21.7366 15.5803C21.8173 15.3831 21.9894 14.883 21.9999 14.617C21.9999 14.3616 21.9437 14.1169 21.829 13.8853"/></svg>